STARTFONT 2.1
COMMENT converted Oberon font (using FontToBDF by R.Crelier 10.1.91)
FONT Math10.Scn.Fnt
SIZE 10 75 75
FONTBOUNDINGBOX  11 17 0 -3
STARTPROPERTIES 3
FONT_ASCENT 14
FONT_DESCENT 3
DEFAULT_CHAR 0
ENDPROPERTIES
CHARS 97
STARTCHAR c0
ENCODING -1 0
SWIDTH 0 0
DWIDTH 0 0
BBX 0 0 0 0
BITMAP
ENDCHAR
STARTCHAR c9
ENCODING -1 9
SWIDTH 387 0
DWIDTH 12 0
BBX 0 0 0 0
BITMAP
ENDCHAR
STARTCHAR c32
ENCODING -1 32
SWIDTH 225 0
DWIDTH 7 0
BBX 5 14 1 0
BITMAP
20
00
00
00
00
00
38
60
A0
A0
A0
A0
60
38
ENDCHAR
STARTCHAR c33
ENCODING -1 33
SWIDTH 258 0
DWIDTH 8 0
BBX 7 8 1 0
BITMAP
F8
A4
A4
B8
A8
A4
A4
A2
ENDCHAR
STARTCHAR c34
ENCODING -1 34
SWIDTH 96 0
DWIDTH 3 0
BBX 1 3 1 5
BITMAP
80
80
80
ENDCHAR
STARTCHAR c35
ENCODING -1 35
SWIDTH 193 0
DWIDTH 6 0
BBX 4 7 1 0
BITMAP
30
40
80
40
30
00
F0
ENDCHAR
STARTCHAR c36
ENCODING -1 36
SWIDTH 193 0
DWIDTH 6 0
BBX 5 10 1 -1
BITMAP
08
08
10
10
20
20
40
40
80
80
ENDCHAR
STARTCHAR c37
ENCODING -1 37
SWIDTH 322 0
DWIDTH 10 0
BBX 8 4 1 1
BITMAP
66
99
99
66
ENDCHAR
STARTCHAR c38
ENCODING -1 38
SWIDTH 129 0
DWIDTH 4 0
BBX 2 2 1 6
BITMAP
C0
C0
ENDCHAR
STARTCHAR c39
ENCODING -1 39
SWIDTH 225 0
DWIDTH 7 0
BBX 6 6 0 0
BITMAP
3C
0C
14
24
40
80
ENDCHAR
STARTCHAR c40
ENCODING -1 40
SWIDTH 225 0
DWIDTH 7 0
BBX 6 6 1 0
BITMAP
F0
C0
A0
90
08
04
ENDCHAR
STARTCHAR c41
ENCODING -1 41
SWIDTH 225 0
DWIDTH 7 0
BBX 6 6 1 0
BITMAP
04
08
90
A0
C0
F0
ENDCHAR
STARTCHAR c42
ENCODING -1 42
SWIDTH 225 0
DWIDTH 7 0
BBX 6 6 0 0
BITMAP
80
40
24
14
0C
3C
ENDCHAR
STARTCHAR c43
ENCODING -1 43
SWIDTH 322 0
DWIDTH 10 0
BBX 8 5 1 1
BITMAP
24
42
FF
42
24
ENDCHAR
STARTCHAR c44
ENCODING -1 44
SWIDTH 258 0
DWIDTH 8 0
BBX 7 5 1 1
BITMAP
20
40
FE
40
20
ENDCHAR
STARTCHAR c45
ENCODING -1 45
SWIDTH 225 0
DWIDTH 7 0
BBX 5 7 1 0
BITMAP
20
70
A8
20
20
20
20
ENDCHAR
STARTCHAR c46
ENCODING -1 46
SWIDTH 258 0
DWIDTH 8 0
BBX 7 5 0 1
BITMAP
08
04
FE
04
08
ENDCHAR
STARTCHAR c47
ENCODING -1 47
SWIDTH 225 0
DWIDTH 7 0
BBX 5 7 1 0
BITMAP
20
20
20
20
A8
70
20
ENDCHAR
STARTCHAR c48
ENCODING -1 48
SWIDTH 193 0
DWIDTH 6 0
BBX 4 4 1 4
BITMAP
60
90
90
60
ENDCHAR
STARTCHAR c49
ENCODING -1 49
SWIDTH 225 0
DWIDTH 7 0
BBX 5 7 1 0
BITMAP
20
20
F8
20
20
00
F8
ENDCHAR
STARTCHAR c50
ENCODING -1 50
SWIDTH 161 0
DWIDTH 5 0
BBX 3 3 1 5
BITMAP
A0
A0
A0
ENDCHAR
STARTCHAR c51
ENCODING -1 51
SWIDTH 193 0
DWIDTH 6 0
BBX 4 7 1 0
BITMAP
C0
20
10
20
C0
00
F0
ENDCHAR
STARTCHAR c52
ENCODING -1 52
SWIDTH 225 0
DWIDTH 7 0
BBX 5 5 1 0
BITMAP
88
50
20
50
88
ENDCHAR
STARTCHAR c53
ENCODING -1 53
SWIDTH 290 0
DWIDTH 9 0
BBX 7 4 1 1
BITMAP
76
88
88
76
ENDCHAR
STARTCHAR c54
ENCODING -1 54
SWIDTH 225 0
DWIDTH 7 0
BBX 5 8 1 0
BITMAP
E0
10
08
68
88
88
88
70
ENDCHAR
STARTCHAR c55
ENCODING -1 55
SWIDTH 129 0
DWIDTH 4 0
BBX 2 2 1 2
BITMAP
C0
C0
ENDCHAR
STARTCHAR c56
ENCODING -1 56
SWIDTH 225 0
DWIDTH 7 0
BBX 5 7 1 0
BITMAP
20
20
00
F8
00
20
20
ENDCHAR
STARTCHAR c57
ENCODING -1 57
SWIDTH 225 0
DWIDTH 7 0
BBX 5 7 1 0
BITMAP
10
10
F8
20
F8
40
40
ENDCHAR
STARTCHAR c58
ENCODING -1 58
SWIDTH 225 0
DWIDTH 7 0
BBX 5 5 1 1
BITMAP
F8
00
F8
00
F8
ENDCHAR
STARTCHAR c59
ENCODING -1 59
SWIDTH 225 0
DWIDTH 7 0
BBX 5 5 1 1
BITMAP
68
B0
00
68
B0
ENDCHAR
STARTCHAR c60
ENCODING -1 60
SWIDTH 225 0
DWIDTH 7 0
BBX 5 2 1 0
BITMAP
A8
A8
ENDCHAR
STARTCHAR c61
ENCODING -1 61
SWIDTH 96 0
DWIDTH 3 0
BBX 1 12 1 -3
BITMAP
80
80
80
80
80
80
80
80
80
80
80
80
ENDCHAR
STARTCHAR c62
ENCODING -1 62
SWIDTH 161 0
DWIDTH 5 0
BBX 5 1 0 3
BITMAP
F8
ENDCHAR
STARTCHAR c63
ENCODING -1 63
SWIDTH 258 0
DWIDTH 8 0
BBX 6 6 1 -3
BITMAP
04
24
44
FC
40
20
ENDCHAR
STARTCHAR c64
ENCODING -1 64
SWIDTH 290 0
DWIDTH 9 0
BBX 7 8 1 0
BITMAP
8C
C6
64
B4
9C
8C
46
C2
ENDCHAR
STARTCHAR c65
ENCODING -1 65
SWIDTH 225 0
DWIDTH 7 0
BBX 5 8 1 0
BITMAP
70
88
90
50
08
08
48
B0
ENDCHAR
STARTCHAR c66
ENCODING -1 66
SWIDTH 290 0
DWIDTH 9 0
BBX 7 8 1 0
BITMAP
6C
B2
94
58
14
14
54
A2
ENDCHAR
STARTCHAR c67
ENCODING -1 67
SWIDTH 258 0
DWIDTH 8 0
BBX 6 9 1 -3
BITMAP
98
A4
A4
44
44
48
A0
A0
C0
ENDCHAR
STARTCHAR c68
ENCODING -1 68
SWIDTH 290 0
DWIDTH 9 0
BBX 7 7 1 0
BITMAP
38
44
AA
92
AA
44
38
ENDCHAR
STARTCHAR c69
ENCODING -1 69
SWIDTH 290 0
DWIDTH 9 0
BBX 7 7 1 0
BITMAP
38
54
92
FE
92
54
38
ENDCHAR
STARTCHAR c70
ENCODING -1 70
SWIDTH 258 0
DWIDTH 8 0
BBX 6 10 1 -2
BITMAP
08
08
78
94
94
A4
A4
78
40
40
ENDCHAR
STARTCHAR c71
ENCODING -1 71
SWIDTH 225 0
DWIDTH 7 0
BBX 5 4 1 1
BITMAP
70
88
88
88
ENDCHAR
STARTCHAR c72
ENCODING -1 72
SWIDTH 225 0
DWIDTH 7 0
BBX 5 4 1 1
BITMAP
88
88
88
70
ENDCHAR
STARTCHAR c73
ENCODING -1 73
SWIDTH 193 0
DWIDTH 6 0
BBX 4 6 1 0
BITMAP
E0
10
10
10
10
E0
ENDCHAR
STARTCHAR c74
ENCODING -1 74
SWIDTH 193 0
DWIDTH 6 0
BBX 4 6 1 0
BITMAP
E0
10
10
E0
00
F0
ENDCHAR
STARTCHAR c75
ENCODING -1 75
SWIDTH 193 0
DWIDTH 6 0
BBX 5 10 1 -2
BITMAP
10
10
78
90
90
A0
A0
78
20
20
ENDCHAR
STARTCHAR c76
ENCODING -1 76
SWIDTH 193 0
DWIDTH 6 0
BBX 4 6 1 0
BITMAP
70
80
80
80
80
70
ENDCHAR
STARTCHAR c77
ENCODING -1 77
SWIDTH 193 0
DWIDTH 6 0
BBX 4 6 1 0
BITMAP
70
80
80
70
00
F0
ENDCHAR
STARTCHAR c78
ENCODING -1 78
SWIDTH 193 0
DWIDTH 6 0
BBX 4 6 1 0
BITMAP
70
80
F0
80
80
70
ENDCHAR
STARTCHAR c79
ENCODING -1 79
SWIDTH 225 0
DWIDTH 7 0
BBX 5 10 1 -2
BITMAP
10
10
78
90
F8
A0
A0
78
20
20
ENDCHAR
STARTCHAR c80
ENCODING -1 80
SWIDTH 290 0
DWIDTH 9 0
BBX 7 9 1 -2
BITMAP
04
28
10
30
48
88
FE
08
08
ENDCHAR
STARTCHAR c81
ENCODING -1 81
SWIDTH 225 0
DWIDTH 7 0
BBX 7 8 0 0
BITMAP
FE
82
44
44
28
28
10
10
ENDCHAR
STARTCHAR c82
ENCODING -1 82
SWIDTH 225 0
DWIDTH 7 0
BBX 7 8 0 0
BITMAP
82
82
7C
44
28
28
10
10
ENDCHAR
STARTCHAR c83
ENCODING -1 83
SWIDTH 193 0
DWIDTH 6 0
BBX 4 8 1 0
BITMAP
F0
10
10
F0
10
10
10
F0
ENDCHAR
STARTCHAR c84
ENCODING -1 84
SWIDTH 193 0
DWIDTH 6 0
BBX 4 6 1 0
BITMAP
E0
10
F0
10
10
E0
ENDCHAR
STARTCHAR c85
ENCODING -1 85
SWIDTH 258 0
DWIDTH 8 0
BBX 6 8 1 0
BITMAP
FC
84
84
84
84
84
84
84
ENDCHAR
STARTCHAR c86
ENCODING -1 86
SWIDTH 161 0
DWIDTH 5 0
BBX 5 9 0 0
BITMAP
08
08
08
D0
50
50
60
60
60
ENDCHAR
STARTCHAR c87
ENCODING -1 87
SWIDTH 96 0
DWIDTH 3 0
BBX 1 2 1 2
BITMAP
80
80
ENDCHAR
STARTCHAR c88
ENCODING -1 88
SWIDTH 225 0
DWIDTH 7 0
BBX 5 3 1 1
BITMAP
F8
08
08
ENDCHAR
STARTCHAR c89
ENCODING -1 89
SWIDTH 161 0
DWIDTH 5 0
BBX 5 6 0 0
BITMAP
20
20
50
50
88
88
ENDCHAR
STARTCHAR c90
ENCODING -1 90
SWIDTH 161 0
DWIDTH 5 0
BBX 5 6 0 0
BITMAP
88
88
50
50
20
20
ENDCHAR
STARTCHAR c91
ENCODING -1 91
SWIDTH 354 0
DWIDTH 11 0
BBX 11 7 0 0
BITMAP
1100
2080
7FC0
8020
7FC0
2080
1100
ENDCHAR
STARTCHAR c92
ENCODING -1 92
SWIDTH 290 0
DWIDTH 9 0
BBX 8 7 0 0
BITMAP
10
20
7F
80
7F
20
10
ENDCHAR
STARTCHAR c93
ENCODING -1 93
SWIDTH 225 0
DWIDTH 7 0
BBX 7 8 0 0
BITMAP
10
28
6C
AA
28
28
28
28
ENDCHAR
STARTCHAR c94
ENCODING -1 94
SWIDTH 290 0
DWIDTH 9 0
BBX 8 7 1 0
BITMAP
08
04
FE
01
FE
04
08
ENDCHAR
STARTCHAR c95
ENCODING -1 95
SWIDTH 225 0
DWIDTH 7 0
BBX 7 8 0 0
BITMAP
28
28
28
28
AA
6C
28
10
ENDCHAR
STARTCHAR c96
ENCODING -1 96
SWIDTH 193 0
DWIDTH 6 0
BBX 4 6 1 0
BITMAP
F0
F0
F0
F0
F0
F0
ENDCHAR
STARTCHAR c97
ENCODING -1 97
SWIDTH 161 0
DWIDTH 5 0
BBX 3 10 1 -2
BITMAP
20
20
40
40
80
80
40
40
20
20
ENDCHAR
STARTCHAR c98
ENCODING -1 98
SWIDTH 225 0
DWIDTH 7 0
BBX 5 5 1 0
BITMAP
80
80
F8
80
80
ENDCHAR
STARTCHAR c99
ENCODING -1 99
SWIDTH 225 0
DWIDTH 7 0
BBX 5 7 1 0
BITMAP
80
80
F8
80
F8
80
80
ENDCHAR
STARTCHAR c100
ENCODING -1 100
SWIDTH 225 0
DWIDTH 7 0
BBX 5 5 1 0
BITMAP
08
08
F8
08
08
ENDCHAR
STARTCHAR c101
ENCODING -1 101
SWIDTH 193 0
DWIDTH 6 0
BBX 4 8 1 0
BITMAP
F0
80
40
20
20
40
80
F0
ENDCHAR
STARTCHAR c102
ENCODING -1 102
SWIDTH 258 0
DWIDTH 8 0
BBX 7 7 0 0
BITMAP
06
18
62
8C
62
18
06
ENDCHAR
STARTCHAR c103
ENCODING -1 103
SWIDTH 258 0
DWIDTH 8 0
BBX 7 7 1 0
BITMAP
C0
30
8C
62
8C
30
C0
ENDCHAR
STARTCHAR c104
ENCODING -1 104
SWIDTH 161 0
DWIDTH 5 0
BBX 3 6 1 0
BITMAP
E0
80
80
80
80
80
ENDCHAR
STARTCHAR c105
ENCODING -1 105
SWIDTH 161 0
DWIDTH 5 0
BBX 3 6 1 0
BITMAP
E0
20
20
20
20
20
ENDCHAR
STARTCHAR c106
ENCODING -1 106
SWIDTH 161 0
DWIDTH 5 0
BBX 3 6 1 0
BITMAP
80
80
80
80
80
E0
ENDCHAR
STARTCHAR c107
ENCODING -1 107
SWIDTH 161 0
DWIDTH 5 0
BBX 3 6 1 0
BITMAP
20
20
20
20
20
E0
ENDCHAR
STARTCHAR c108
ENCODING -1 108
SWIDTH 161 0
DWIDTH 5 0
BBX 3 6 1 0
BITMAP
A0
A0
A0
A0
A0
A0
ENDCHAR
STARTCHAR c109
ENCODING -1 109
SWIDTH 225 0
DWIDTH 7 0
BBX 5 7 1 -1
BITMAP
F8
00
20
20
F8
20
20
ENDCHAR
STARTCHAR c110
ENCODING -1 110
SWIDTH 161 0
DWIDTH 5 0
BBX 4 7 0 0
BITMAP
10
10
20
C0
20
10
10
ENDCHAR
STARTCHAR c111
ENCODING -1 111
SWIDTH 161 0
DWIDTH 5 0
BBX 4 7 1 0
BITMAP
80
80
40
30
40
80
80
ENDCHAR
STARTCHAR c112
ENCODING -1 112
SWIDTH 225 0
DWIDTH 7 0
BBX 5 4 1 1
BITMAP
68
B0
00
F8
ENDCHAR
STARTCHAR c113
ENCODING -1 113
SWIDTH 161 0
DWIDTH 5 0
BBX 3 10 1 -2
BITMAP
80
80
40
40
20
20
40
40
80
80
ENDCHAR
STARTCHAR c114
ENCODING -1 114
SWIDTH 225 0
DWIDTH 7 0
BBX 5 10 1 -2
BITMAP
20
20
F0
28
28
48
48
F0
40
40
ENDCHAR
STARTCHAR c115
ENCODING -1 115
SWIDTH 193 0
DWIDTH 6 0
BBX 5 9 0 -3
BITMAP
30
08
08
08
28
48
F0
40
20
ENDCHAR
STARTCHAR c116
ENCODING -1 116
SWIDTH 290 0
DWIDTH 9 0
BBX 7 9 1 -1
BITMAP
20
40
FE
40
28
04
FE
04
08
ENDCHAR
STARTCHAR c117
ENCODING -1 117
SWIDTH 193 0
DWIDTH 6 0
BBX 5 7 1 -2
BITMAP
E0
20
20
20
A8
70
20
ENDCHAR
STARTCHAR c118
ENCODING -1 118
SWIDTH 193 0
DWIDTH 6 0
BBX 4 9 1 -1
BITMAP
70
80
80
70
90
E0
10
10
E0
ENDCHAR
STARTCHAR c119
ENCODING -1 119
SWIDTH 290 0
DWIDTH 9 0
BBX 7 7 1 0
BITMAP
20
40
FE
00
FE
04
08
ENDCHAR
STARTCHAR c120
ENCODING -1 120
SWIDTH 96 0
DWIDTH 3 0
BBX 3 12 0 -3
BITMAP
20
40
40
40
40
40
40
40
40
40
40
80
ENDCHAR
STARTCHAR c121
ENCODING -1 121
SWIDTH 161 0
DWIDTH 5 0
BBX 3 12 1 -3
BITMAP
20
40
40
40
40
A0
A0
40
40
40
40
80
ENDCHAR
STARTCHAR c122
ENCODING -1 122
SWIDTH 225 0
DWIDTH 7 0
BBX 5 6 1 0
BITMAP
88
88
00
00
20
20
ENDCHAR
STARTCHAR c123
ENCODING -1 123
SWIDTH 225 0
DWIDTH 7 0
BBX 5 6 1 1
BITMAP
20
20
00
F8
00
F8
ENDCHAR
STARTCHAR c124
ENCODING -1 124
SWIDTH 96 0
DWIDTH 3 0
BBX 1 2 1 6
BITMAP
80
80
ENDCHAR
STARTCHAR c125
ENCODING -1 125
SWIDTH 225 0
DWIDTH 7 0
BBX 5 9 1 -1
BITMAP
20
20
F8
20
20
20
20
20
20
ENDCHAR
STARTCHAR c126
ENCODING -1 126
SWIDTH 225 0
DWIDTH 7 0
BBX 5 10 1 -2
BITMAP
10
10
78
90
90
A0
A8
70
20
20
ENDCHAR
ENDFONT
